<svg xmlns="http://www.w3.org/2000/svg" width="411" height="315" viewBox="99.5 231.5 411 315"><g fill="#373435"><path d="M122.659 512.373v9.574h5.832c1.656 0 2.952-.432 3.889-1.295.936-.863 1.439-2.016 1.439-3.527 0-3.24-1.728-4.824-5.256-4.824h-5.832l-.072.072zm0-2.809h5.328c1.513 0 2.736-.359 3.672-1.152.937-.791 1.368-1.801 1.368-3.168 0-1.439-.432-2.52-1.296-3.24-.864-.648-2.16-1.008-3.888-1.008h-5.185v8.568zm-3.527 15.336v-26.713h8.712c2.88 0 5.112.576 6.552 1.801 1.44 1.225 2.16 2.951 2.16 5.328 0 1.225-.36 2.375-1.08 3.313-.72.936-1.656 1.727-2.88 2.23 1.439.434 2.592 1.152 3.384 2.305.864 1.152 1.224 2.447 1.224 4.031 0 2.377-.792 4.248-2.304 5.617-1.584 1.367-3.744 2.088-6.552 2.088h-9.288.072zM154.195 522.885c-1.296 1.584-3.239 2.303-5.832 2.303-2.088 0-3.744-.646-4.823-1.871-1.08-1.225-1.656-3.023-1.656-5.473v-12.887h3.384v12.814c0 3.025 1.224 4.537 3.672 4.537 2.592 0 4.32-.936 5.185-2.881v-14.4h3.384V524.9h-3.24l-.072-1.943v-.072zM166.363 524.828h-3.384v-19.871h3.384v19.871zm-3.672-25.129c0-.574.145-1.008.504-1.367.36-.359.864-.576 1.513-.576.647 0 1.151.217 1.512.576s.504.863.504 1.367c0 .576-.144 1.01-.504 1.369s-.864.576-1.512.576-1.152-.217-1.513-.576c-.359-.359-.504-.793-.504-1.369zM175.436 524.828h-3.384v-28.152h3.384zM183.428 515.179c0 2.232.432 4.033 1.368 5.256.936 1.297 2.231 1.873 3.815 1.873 2.16 0 3.744-.936 4.681-2.881v-9.145c-1.009-1.871-2.593-2.807-4.681-2.807-1.655 0-2.952.648-3.888 1.943-.936 1.297-1.368 3.168-1.368 5.688l.073.073zm-3.384-.359c0-3.023.72-5.473 2.159-7.344 1.44-1.873 3.313-2.809 5.688-2.809 2.304 0 4.176.793 5.544 2.377v-10.369h3.384v28.152h-3.096l-.144-2.16c-1.368 1.656-3.24 2.52-5.688 2.52-2.304 0-4.176-.936-5.616-2.807-1.439-1.873-2.16-4.32-2.16-7.344v-.289l-.071.073zM209.852 507.476c-1.368 0-2.52.504-3.456 1.512-.936 1.008-1.512 2.375-1.728 4.176h9.936v-.287c-.072-1.729-.576-3.025-1.368-4.033-.863-.936-1.943-1.439-3.384-1.439v.071zm.431 17.784c-2.664 0-4.896-.863-6.552-2.664-1.656-1.799-2.52-4.104-2.52-7.055v-.648c0-1.945.359-3.744 1.151-5.256.721-1.512 1.801-2.736 3.168-3.6 1.368-.865 2.809-1.297 4.393-1.297 2.592 0 4.607.863 6.048 2.52 1.439 1.729 2.16 4.104 2.16 7.271v1.441h-13.464c.071 1.943.647 3.527 1.728 4.752 1.08 1.223 2.521 1.799 4.176 1.799 1.225 0 2.232-.215 3.024-.719a6.988 6.988 0 0 0 2.16-1.945l2.088 1.584c-1.656 2.521-4.176 3.816-7.488 3.816h-.072zM231.523 508.052c-.504-.072-1.08-.145-1.656-.145-2.231 0-3.743.936-4.535 2.809v14.111h-3.385v-19.871h3.313l.072 2.303c1.079-1.799 2.664-2.664 4.752-2.664.647 0 1.151.072 1.512.289v3.168h-.073zM246.212 519.572c0-.936-.36-1.656-1.009-2.16-.72-.504-1.871-.936-3.6-1.297-1.728-.359-3.096-.791-4.104-1.295-1.009-.504-1.729-1.152-2.232-1.801-.504-.719-.72-1.584-.72-2.52 0-1.656.72-3.023 2.088-4.104 1.368-1.152 3.168-1.656 5.256-1.656 2.232 0 4.104.576 5.472 1.729 1.368 1.152 2.088 2.664 2.088 4.463h-3.384c0-.936-.359-1.727-1.151-2.375s-1.801-1.008-2.952-1.008c-1.225 0-2.232.287-2.88.791-.721.504-1.08 1.225-1.08 2.088 0 .793.288 1.439 1.008 1.873.647.432 1.8.791 3.528 1.223 1.728.361 3.096.865 4.104 1.369 1.08.504 1.8 1.152 2.304 1.871.504.721.792 1.656.792 2.736 0 1.801-.72 3.168-2.159 4.248-1.44 1.08-3.24 1.584-5.545 1.584-1.584 0-3.023-.287-4.247-.863-1.225-.576-2.16-1.369-2.881-2.377-.72-1.008-1.008-2.088-1.008-3.24h3.384c.072 1.152.505 2.016 1.368 2.736.864.648 1.944 1.008 3.384 1.008 1.297 0 2.305-.287 3.097-.791s1.151-1.225 1.151-2.088l-.072-.144zM268.172 504.164c0 1.152.72 2.664 2.16 4.393l2.159-1.512a6.406 6.406 0 0 0 1.729-1.656c.288-.504.432-1.152.432-1.945 0-.791-.288-1.512-.936-2.016-.576-.576-1.368-.791-2.305-.791-1.008 0-1.8.359-2.376 1.008-.575.648-.863 1.512-.863 2.592v-.073zm3.096 18.287c1.8 0 3.456-.719 4.968-2.088l-6.479-7.775-.576.432c-2.016 1.512-3.096 3.025-3.096 4.609 0 1.439.504 2.592 1.367 3.455.937.863 2.232 1.297 3.816 1.297v.07zm-8.64-4.752c0-1.295.359-2.447 1.08-3.527.72-1.08 2.088-2.305 4.104-3.744-1.152-1.439-2.016-2.592-2.376-3.455-.432-.865-.576-1.729-.576-2.592 0-2.018.576-3.602 1.8-4.752 1.225-1.152 2.809-1.729 4.896-1.729 1.8 0 3.384.504 4.536 1.584 1.224 1.08 1.8 2.447 1.8 4.031 0 1.08-.288 2.088-.792 2.953-.576.936-1.512 1.871-2.88 2.879l-1.944 1.441 5.977 7.127c.863-1.584 1.224-3.385 1.224-5.328h3.096c0 3.096-.72 5.688-2.231 7.775l3.815 4.537h-4.104l-1.8-2.088c-.937.791-1.944 1.439-3.168 1.871a11.075 11.075 0 0 1-3.744.648c-2.592 0-4.681-.721-6.265-2.088s-2.376-3.168-2.376-5.473l-.072-.07zM299.996 501.068v20.951h3.672c2.735 0 4.823-.863 6.336-2.52 1.512-1.656 2.231-4.104 2.231-7.199v-1.584c0-3.025-.72-5.4-2.16-7.057-1.439-1.656-3.455-2.52-6.048-2.592h-4.104.073zm-3.528 23.832v-26.713h7.56c2.305 0 4.393.504 6.192 1.512 1.801 1.01 3.168 2.521 4.104 4.393.937 1.873 1.44 4.104 1.513 6.553v1.729c0 2.52-.504 4.752-1.44 6.623-1.008 1.871-2.375 3.385-4.176 4.393-1.8 1.008-3.888 1.512-6.264 1.584h-7.416l-.073-.074zM328.364 507.476c-1.368 0-2.521.504-3.457 1.512-.936 1.008-1.512 2.375-1.728 4.176h9.937v-.287c-.072-1.729-.576-3.025-1.368-4.033-.864-.936-1.944-1.439-3.384-1.439v.071zm.432 17.784c-2.664 0-4.896-.863-6.553-2.664-1.655-1.799-2.52-4.104-2.52-7.055v-.648c0-1.945.36-3.744 1.152-5.256.72-1.512 1.8-2.736 3.168-3.6 1.367-.865 2.809-1.297 4.393-1.297 2.592 0 4.607.863 6.047 2.52 1.44 1.729 2.16 4.104 2.16 7.271v1.441H323.18c.072 1.943.647 3.527 1.728 4.752 1.08 1.223 2.521 1.799 4.177 1.799 1.224 0 2.231-.215 3.024-.719a6.999 6.999 0 0 0 2.16-1.945l2.088 1.584c-1.656 2.521-4.177 3.816-7.488 3.816h-.073zM346.796 520.293l4.896-15.266h3.455l-7.126 19.801H345.5l-7.2-19.801h3.456zM366.021 507.476c-1.369 0-2.521.504-3.457 1.512-.936 1.008-1.512 2.375-1.728 4.176h9.937v-.287c-.072-1.729-.576-3.025-1.369-4.033-.863-.936-1.943-1.439-3.383-1.439v.071zm.431 17.784c-2.664 0-4.896-.863-6.553-2.664-1.656-1.799-2.52-4.104-2.52-7.055v-.648c0-1.945.359-3.744 1.152-5.256.72-1.512 1.8-2.736 3.168-3.6 1.367-.865 2.808-1.297 4.392-1.297 2.593 0 4.608.863 6.048 2.52 1.44 1.729 2.16 4.104 2.16 7.271v1.441h-13.464c.071 1.943.647 3.527 1.728 4.752 1.08 1.223 2.521 1.799 4.176 1.799 1.225 0 2.232-.215 3.024-.719a6.988 6.988 0 0 0 2.16-1.945l2.088 1.584c-1.655 2.521-4.176 3.816-7.487 3.816h-.072zM381.788 524.828h-3.385v-28.152h3.385zM389.708 515.179c0 2.232.504 3.961 1.512 5.328 1.008 1.369 2.376 2.016 4.104 2.016 1.729 0 3.097-.646 4.104-2.016 1.009-1.367 1.513-3.24 1.513-5.688 0-2.16-.504-3.961-1.584-5.256-1.009-1.369-2.377-2.016-4.104-2.016-1.656 0-3.024.646-4.032 2.016-1.008 1.367-1.512 3.24-1.512 5.688v-.072zm-3.385-.431c0-1.943.361-3.672 1.152-5.256.793-1.584 1.801-2.736 3.168-3.6 1.368-.865 2.952-1.297 4.68-1.297 2.736 0 4.896.936 6.553 2.809 1.656 1.871 2.52 4.393 2.52 7.488v.215c0 1.945-.359 3.672-1.08 5.186a8.564 8.564 0 0 1-3.168 3.6c-1.367.863-2.951 1.295-4.752 1.295-2.664 0-4.896-.936-6.552-2.807-1.655-1.873-2.521-4.32-2.521-7.416v-.217zM421.964 514.748c0-2.232-.504-4.031-1.439-5.328-.937-1.295-2.232-1.943-3.889-1.943-2.088 0-3.6.936-4.607 2.736v9.504c1.008 1.799 2.592 2.734 4.68 2.734 1.656 0 2.951-.646 3.889-1.943.936-1.295 1.439-3.24 1.439-5.76h-.073zm3.385.359c0 3.025-.721 5.473-2.088 7.273-1.369 1.871-3.24 2.734-5.617 2.734-2.375 0-4.32-.791-5.688-2.303v9.576h-3.385v-27.432h3.097l.144 2.23c1.368-1.727 3.313-2.592 5.76-2.592 2.377 0 4.248.865 5.689 2.664 1.367 1.801 2.088 4.32 2.088 7.488v.362zM437.517 507.476c-1.369 0-2.521.504-3.457 1.512s-1.512 2.375-1.729 4.176h9.938v-.287c-.072-1.729-.576-3.025-1.369-4.033-.863-.936-1.943-1.439-3.383-1.439v.071zm.431 17.784c-2.664 0-4.896-.863-6.553-2.664-1.656-1.799-2.52-4.104-2.52-7.055v-.648c0-1.945.359-3.744 1.152-5.256.719-1.512 1.799-2.736 3.168-3.6 1.367-.865 2.807-1.297 4.391-1.297 2.594 0 4.609.863 6.049 2.52 1.439 1.729 2.16 4.104 2.16 7.271v1.441H432.33c.072 1.943.648 3.527 1.729 4.752 1.08 1.223 2.52 1.799 4.176 1.799 1.225 0 2.232-.215 3.025-.719a6.97 6.97 0 0 0 2.158-1.945l2.09 1.584c-1.656 2.521-4.178 3.816-7.488 3.816h-.072zM459.188 508.052c-.504-.072-1.08-.145-1.656-.145-2.232 0-3.744.936-4.537 2.809v14.111h-3.383v-19.871h3.313l.07 2.303c1.08-1.799 2.664-2.664 4.752-2.664.648 0 1.152.072 1.514.289v3.168h-.073zM473.804 519.572c0-.936-.359-1.656-1.008-2.16-.721-.504-1.871-.936-3.6-1.297-1.729-.359-3.096-.791-4.104-1.295-1.01-.504-1.729-1.152-2.232-1.801-.504-.719-.721-1.584-.721-2.52 0-1.656.721-3.023 2.088-4.104 1.369-1.152 3.168-1.656 5.256-1.656 2.232 0 4.104.576 5.473 1.729 1.367 1.152 2.088 2.664 2.088 4.463h-3.385c0-.936-.359-1.727-1.15-2.375-.793-.648-1.801-1.008-2.953-1.008-1.225 0-2.232.287-2.879.791-.721.504-1.08 1.225-1.08 2.088 0 .793.359 1.439.936 1.873.648.432 1.799.791 3.527 1.223 1.729.361 3.096.865 4.104 1.369 1.08.504 1.801 1.152 2.305 1.871.504.721.793 1.656.793 2.736 0 1.801-.721 3.168-2.16 4.248-1.441 1.08-3.24 1.584-5.545 1.584-1.584 0-3.023-.287-4.248-.863s-2.16-1.369-2.879-2.377c-.721-1.008-1.01-2.088-1.01-3.24h3.385c.072 1.152.504 2.016 1.367 2.736.865.648 1.945 1.008 3.385 1.008 1.297 0 2.305-.287 3.096-.791.793-.504 1.152-1.225 1.152-2.088v-.144z"/></g><path fill="#373435" d="M288.044 395.444c4.823-1.008 8.855-2.592 12.096-4.823 3.24-2.232 4.896-4.248 4.896-6.192 0-.648-.144-1.152-.359-1.44s-.648-.432-1.296-.432c-1.8 0-3.96 1.08-6.553 3.312-2.593 2.159-5.545 5.399-8.784 9.575zm-1.513 3.167c-.288.648-.575 1.297-.72 1.945-.144.648-.216 1.223-.216 1.727 0 1.152.36 2.018 1.08 2.664.72.648 1.728.938 3.023.938 2.232 0 4.969-.793 8.208-2.449 3.24-1.656 6.696-3.959 10.369-6.984.936-.792 2.16-1.871 3.527-3.096 1.368-1.296 2.232-1.872 2.592-1.872.289 0 .504.072.648.216.145.145.216.433.288.721 0 .359-.505 1.08-1.44 2.016-.936 1.008-2.664 2.449-5.039 4.537-3.529 3.023-7.129 5.4-10.657 7.055-3.527 1.656-6.624 2.521-9.288 2.521-2.592 0-4.607-.793-6.119-2.377-1.513-1.584-2.305-3.672-2.305-6.408 0-2.447.792-4.824 2.305-7.2 1.512-2.376 3.743-4.68 6.695-6.84 2.592-1.872 4.968-3.24 7.2-4.176 2.232-.937 4.32-1.368 6.264-1.368 1.729 0 2.88.288 3.601.792.721.576 1.08 1.512 1.08 2.88 0 2.736-2.016 5.544-6.048 8.496s-9 5.041-14.904 6.263h-.144zM366.38 365.852c0-1.008.359-1.872 1.08-2.52.72-.648 1.656-.937 2.88-.937 1.151 0 2.088.288 2.88.937.721.647 1.08 1.439 1.08 2.52s-.359 1.944-1.08 2.592c-.72.648-1.656.937-2.88.937-1.151 0-2.088-.288-2.88-.937-.721-.648-1.08-1.512-1.08-2.592zm-30.96 44.208c-7.488 3.313-13.536 7.199-18.144 11.592-4.608 4.393-6.984 8.279-6.984 11.592 0 .936.288 1.656.863 2.16.576.504 1.369.721 2.521.721 2.593 0 5.688-2.088 9.216-6.336 3.528-4.248 7.704-10.873 12.528-19.801v.072zm2.304-4.248c2.448-4.176 4.608-7.848 6.624-11.016a321.44 321.44 0 0 1 5.832-8.856c-2.376 1.729-4.752 3.672-7.272 5.832-2.52 2.16-3.959 3.24-4.319 3.24-.144 0-.36-.072-.504-.288s-.216-.432-.216-.648c0-.863 1.728-2.663 5.111-5.472 3.385-2.808 7.561-5.688 12.528-8.567.288 0 .647-.072 1.008-.072h1.152c1.296 0 2.376.144 3.168.432.864.288 1.296.576 1.296.937 0 .071-1.872 2.447-5.544 7.128-3.672 4.607-7.2 9.647-10.584 14.975 4.752-1.871 10.944-5.904 18.72-12.095.288 0 .504.072.648.216.144.144.216.432.287.72 0 1.08-2.159 3.168-6.479 6.265-4.319 3.096-9.432 5.902-15.264 8.424-6.408 10.943-11.952 18.936-16.776 23.975-4.824 4.969-9.216 7.488-13.176 7.488-2.088 0-3.672-.504-4.752-1.439s-1.584-2.377-1.584-4.32c0-4.031 2.664-8.424 8.064-13.248 5.328-4.824 12.744-9.287 22.104-13.535l-.072-.076zM400.796 400.125l12.24-13.033a9.9 9.9 0 0 0 1.08-1.512c.287-.505.432-.937.432-1.368a1.2 1.2 0 0 0-.359-.864c-.217-.216-.576-.288-1.009-.288-1.224 0-2.808.504-4.752 1.512-1.944 1.009-3.96 2.376-6.048 4.104-3.385 2.808-6.191 5.76-8.352 8.785-2.232 3.023-3.313 5.328-3.313 6.695 0 .504.145.863.432 1.225.289.287.648.432 1.152.432.936 0 2.232-.504 3.744-1.512s3.169-2.377 4.753-4.176zm.432 2.23c-2.16 2.088-4.104 3.672-5.904 4.682-1.799 1.078-3.455 1.584-4.823 1.584-1.513 0-2.664-.576-3.456-1.656s-1.225-2.664-1.225-4.682c0-2.375.576-4.68 1.729-6.839 1.152-2.16 2.88-4.248 5.256-6.336a39.889 39.889 0 0 1 9.864-6.552c3.528-1.584 6.624-2.448 9.288-2.448 1.512 0 2.664.288 3.384.864s1.151 1.512 1.224 2.808a12.624 12.624 0 0 1 1.729-1.655c.648-.576 1.367-1.08 2.232-1.584.287 0 .719 0 1.223-.072.504 0 .938-.072 1.152-.072 1.225 0 2.16.072 2.664.288s.793.504.793 1.008c0 .433-.793 1.368-2.449 2.809-.863.792-1.584 1.367-2.16 1.872-4.752 4.535-8.495 8.352-11.159 11.52-2.664 3.168-4.032 5.328-4.032 6.48 0 .432.072.791.288.936.216.143.576.287 1.08.287 1.584 0 3.888-.719 6.912-2.232 3.024-1.512 6.265-3.527 9.72-6.119a81.527 81.527 0 0 0 4.607-3.744c1.656-1.44 2.592-2.16 2.953-2.16.215 0 .432.072.576.288.143.144.215.432.215.72 0 .648-2.016 2.592-5.975 5.832l-.289.217c-3.959 3.168-7.703 5.615-11.304 7.416-3.601 1.799-6.552 2.664-8.784 2.664-1.656 0-2.951-.432-3.888-1.369-1.009-.936-1.44-2.088-1.44-3.672v-.719c0-.145.072-.289.072-.434l-.073.07zM455.587 404.443c.217.721.648 1.225 1.441 1.584.719.361 1.727.504 3.096.504 3.527 0 6.264-1.871 8.207-5.688 1.945-3.816 3.098-9.431 3.385-16.992-3.385 1.872-6.553 4.032-9.432 6.552-2.881 2.448-4.537 3.672-4.824 3.672-.217 0-.432-.071-.648-.216a.65.65 0 0 1-.215-.504c0-.72 1.439-2.304 4.391-4.607 2.881-2.305 6.697-4.896 11.377-7.776.215-2.088.863-3.744 1.729-4.968.936-1.296 1.943-1.872 3.168-1.872.574 0 1.008.216 1.367.576.359.359.504.863.504 1.512 0 1.008-.359 2.088-1.152 3.096-.791 1.008-1.871 1.872-3.168 2.592a13.422 13.422 0 0 1 1.656 3.889c.359 1.439.504 3.096.504 4.824 0 2.88-.432 5.472-1.367 7.704-.938 2.232-2.305 3.959-4.033 5.328a46.668 46.668 0 0 0 12.6-7.488c3.889-3.168 5.832-4.752 5.904-4.752.217 0 .434.071.648.287.145.145.217.433.217.721 0 .504-.793 1.512-2.305 2.952s-3.527 3.024-5.977 4.608c-3.887 2.736-7.775 4.896-11.664 6.408-3.887 1.512-7.271 2.232-10.367 2.232-2.305 0-4.104-.506-5.545-1.514-1.439-1.008-2.158-2.375-2.158-3.959 0-1.297.432-2.377 1.223-3.24.793-.863 1.801-1.225 3.023-1.225.865 0 1.584.289 2.16.793s.793 1.223.793 2.016c0 .936-.289 1.729-.936 2.232-.648.504-1.512.791-2.592.791h-.937l-.073-.072z"/><linearGradient id="a" gradientUnits="userSpaceOnUse" x1="3695.308" y1="-3341.9" x2="5539.315" y2="-3341.9" gradientTransform="matrix(.072 0 0 -.072 -127.706 132.363)"><stop offset="0" stop-color="#d9ab47"/><stop offset="1" stop-color="#cc853b"/></linearGradient><path fill="url(#a)" d="M138.355 372.98c0 36.649 29.736 66.383 66.384 66.383 36.648 0 66.385-29.734 66.385-66.383 0-36.647-29.736-66.384-66.385-66.384-36.647 0-66.384 29.736-66.384 66.384z"/><path fill="#373435" d="M204.739 304.148c6.769 0 13.248 1.008 19.44 2.809l-22.104-61.345-19.872 62.353a68.526 68.526 0 0 1 22.536-3.817zM229.147 437.347h41.977l-9.288-25.848c-7.92 11.665-19.296 20.809-32.689 25.848zM148.796 413.084l-7.704 24.336h39.312c-12.744-4.824-23.688-13.393-31.536-24.336h-.072zM133.1 452.541l2.664-7.201H273.5l2.664 7.201zM126.548 470.611l2.519-6.982h151.201l2.591 6.982zM123.523 479.037l1.296-3.674h159.84l1.368 3.674zM242.611 342.668c0 .936-.504 2.52-1.512 4.68s-2.232 4.32-3.816 6.408c-3.312 4.536-7.056 7.992-11.159 10.368-4.104 2.376-8.353 3.6-12.744 3.6-4.177 0-7.561-1.224-10.08-3.672-2.521-2.448-3.816-5.76-3.816-9.937 0-7.56 3.672-13.752 10.944-18.504 7.344-4.823 16.92-7.199 28.8-7.199 5.472 0 13.752.863 24.769 2.52l.72.072c1.296.216 3.096.504 5.399.863 9.072 1.368 14.832 2.089 17.28 2.089 2.592 0 5.4-.36 8.28-1.152.576-.145.936-.216 1.151-.216.288 0 .576.071.792.288.217.144.36.359.36.575 0 1.009-1.296 2.017-3.815 3.097-2.593 1.008-5.545 1.512-8.929 1.512a33.68 33.68 0 0 1-4.607-.288c-1.584-.144-3.168-.432-4.681-.792-.863-.216-2.088-.504-3.672-.936-13.968-3.385-24.336-5.112-31.176-5.112-5.256 0-10.008.648-14.256 1.872-4.248 1.296-8.064 3.168-11.376 5.76-4.176 3.168-7.272 6.192-9.36 9.072-2.088 2.808-3.096 5.544-3.096 8.063 0 2.664 1.008 4.896 3.023 6.624 2.017 1.729 4.608 2.593 7.776 2.593 4.176 0 8.208-1.296 12.096-3.96 3.889-2.664 7.488-6.48 10.872-11.593a38.53 38.53 0 0 0 2.664-4.968c.864-1.944 1.584-2.952 2.017-2.952.288 0 .575.072.72.288.144.216.288.504.288.864l.144.073zm-47.88 63.576c6.265 0 13.104-3.24 20.448-9.721 7.344-6.479 16.416-17.279 27.144-32.399 6.192-8.784 11.305-15.553 15.336-20.16 4.032-4.608 6.769-6.912 8.208-6.912.288 0 .505.072.648.216.144.145.216.288.216.576 0 .072-1.296 1.944-3.96 5.544s-5.256 7.488-7.775 11.592a547.954 547.954 0 0 1-3.24 5.4c-10.729 17.928-19.8 30.096-27.288 36.577-4.608 3.959-9.288 6.982-14.04 9-4.824 2.016-9.576 3.096-14.328 3.096-5.184 0-9.288-1.152-12.312-3.457-3.024-2.303-4.608-5.328-4.608-9.144 0-2.159.647-3.96 1.872-5.327 1.224-1.368 2.808-2.088 4.68-2.088 1.44 0 2.592.432 3.456 1.296.864.863 1.296 2.016 1.296 3.384 0 1.296-.432 2.376-1.296 3.096-.864.791-2.016 1.152-3.456 1.152-.216 0-.647-.072-1.224-.217s-1.008-.217-1.296-.217c-.216.072-.433.145-.504.289-.072.145-.145.359-.217.721 0 2.016 1.225 3.742 3.601 5.326 2.376 1.514 5.256 2.305 8.712 2.305l-.073.072z"/></svg>